solid OpenSCAD_Model
  facet normal -1 0 0
    outer loop
      vertex 0 0 0
      vertex 0 185 50
      vertex 0 185 0
    endloop
  endfacet
  facet normal -1 -0 0
    outer loop
      vertex 0 185 50
      vertex 0 0 0
      vertex 0 0 50
    endloop
  endfacet
  facet normal 0 0 1
    outer loop
      vertex 185 185 50
      vertex 180 180 50
      vertex 185 0 50
    endloop
  endfacet
  facet normal 0 0 1
    outer loop
      vertex 185 185 50
      vertex 5 180 50
      vertex 180 180 50
    endloop
  endfacet
  facet normal 0 0 1
    outer loop
      vertex 5 180 50
      vertex 0 185 50
      vertex 5 5 50
    endloop
  endfacet
  facet normal -0 0 1
    outer loop
      vertex 0 185 50
      vertex 5 180 50
      vertex 185 185 50
    endloop
  endfacet
  facet normal -0 0 1
    outer loop
      vertex 180 5 50
      vertex 185 0 50
      vertex 180 180 50
    endloop
  endfacet
  facet normal -0 0 1
    outer loop
      vertex 5 5 50
      vertex 185 0 50
      vertex 180 5 50
    endloop
  endfacet
  facet normal 0 0 1
    outer loop
      vertex 5 5 50
      vertex 0 0 50
      vertex 185 0 50
    endloop
  endfacet
  facet normal 0 0 1
    outer loop
      vertex 0 0 50
      vertex 5 5 50
      vertex 0 185 50
    endloop
  endfacet
  facet normal -1 0 0
    outer loop
      vertex 180 5 0
      vertex 180 180 50
      vertex 180 180 0
    endloop
  endfacet
  facet normal -1 -0 0
    outer loop
      vertex 180 180 50
      vertex 180 5 0
      vertex 180 5 50
    endloop
  endfacet
  facet normal 0 1 -0
    outer loop
      vertex 180 5 0
      vertex 5 5 50
      vertex 180 5 50
    endloop
  endfacet
  facet normal 0 1 0
    outer loop
      vertex 5 5 50
      vertex 180 5 0
      vertex 5 5 0
    endloop
  endfacet
  facet normal 0 0 -1
    outer loop
      vertex 185 0 0
      vertex 180 5 0
      vertex 185 185 0
    endloop
  endfacet
  facet normal 0 0 -1
    outer loop
      vertex 185 0 0
      vertex 5 5 0
      vertex 180 5 0
    endloop
  endfacet
  facet normal -0 0 -1
    outer loop
      vertex 5 5 0
      vertex 0 0 0
      vertex 5 180 0
    endloop
  endfacet
  facet normal 0 0 -1
    outer loop
      vertex 0 0 0
      vertex 5 5 0
      vertex 185 0 0
    endloop
  endfacet
  facet normal 0 0 -1
    outer loop
      vertex 180 180 0
      vertex 185 185 0
      vertex 180 5 0
    endloop
  endfacet
  facet normal 0 0 -1
    outer loop
      vertex 5 180 0
      vertex 185 185 0
      vertex 180 180 0
    endloop
  endfacet
  facet normal 0 0 -1
    outer loop
      vertex 5 180 0
      vertex 0 185 0
      vertex 185 185 0
    endloop
  endfacet
  facet normal 0 0 -1
    outer loop
      vertex 0 185 0
      vertex 5 180 0
      vertex 0 0 0
    endloop
  endfacet
  facet normal 0 -1 0
    outer loop
      vertex 0 0 0
      vertex 185 0 50
      vertex 0 0 50
    endloop
  endfacet
  facet normal 0 -1 -0
    outer loop
      vertex 185 0 50
      vertex 0 0 0
      vertex 185 0 0
    endloop
  endfacet
  facet normal 1 -0 0
    outer loop
      vertex 5 5 50
      vertex 5 180 0
      vertex 5 180 50
    endloop
  endfacet
  facet normal 1 0 0
    outer loop
      vertex 5 180 0
      vertex 5 5 50
      vertex 5 5 0
    endloop
  endfacet
  facet normal 0 -1 0
    outer loop
      vertex 5 180 0
      vertex 180 180 50
      vertex 5 180 50
    endloop
  endfacet
  facet normal 0 -1 -0
    outer loop
      vertex 180 180 50
      vertex 5 180 0
      vertex 180 180 0
    endloop
  endfacet
  facet normal 1 -0 0
    outer loop
      vertex 185 0 50
      vertex 185 185 0
      vertex 185 185 50
    endloop
  endfacet
  facet normal 1 0 0
    outer loop
      vertex 185 185 0
      vertex 185 0 50
      vertex 185 0 0
    endloop
  endfacet
  facet normal 0 1 -0
    outer loop
      vertex 185 185 0
      vertex 0 185 50
      vertex 185 185 50
    endloop
  endfacet
  facet normal 0 1 0
    outer loop
      vertex 0 185 50
      vertex 185 185 0
      vertex 0 185 0
    endloop
  endfacet
endsolid OpenSCAD_Model
