solid OpenSCAD_Model
  facet normal -1 0 0
    outer loop
      vertex 20 55 5
      vertex 20 0 5
      vertex 20 55 9
    endloop
  endfacet
  facet normal -1 0 0
    outer loop
      vertex 20 75 9
      vertex 20 130 5
      vertex 20 75 5
    endloop
  endfacet
  facet normal -1 0 0
    outer loop
      vertex 20 130 5
      vertex 20 75 9
      vertex 20 130 20
    endloop
  endfacet
  facet normal -1 0 0
    outer loop
      vertex 20 55 9
      vertex 20 130 20
      vertex 20 75 9
    endloop
  endfacet
  facet normal -1 0 0
    outer loop
      vertex 20 0 20
      vertex 20 55 9
      vertex 20 0 5
    endloop
  endfacet
  facet normal -1 0 0
    outer loop
      vertex 20 55 9
      vertex 20 0 20
      vertex 20 130 20
    endloop
  endfacet
  facet normal -0 0 1
    outer loop
      vertex 20 130 20
      vertex 25 0 20
      vertex 25 130 20
    endloop
  endfacet
  facet normal 0 0 1
    outer loop
      vertex 25 0 20
      vertex 20 130 20
      vertex 20 0 20
    endloop
  endfacet
  facet normal 1 -0 0
    outer loop
      vertex 25 0 20
      vertex 25 130 10
      vertex 25 130 20
    endloop
  endfacet
  facet normal 1 0 0
    outer loop
      vertex 25 130 10
      vertex 25 0 20
      vertex 25 0 10
    endloop
  endfacet
  facet normal -0 0 1
    outer loop
      vertex 0 130 5
      vertex 20 75 5
      vertex 20 130 5
    endloop
  endfacet
  facet normal 0 0 1
    outer loop
      vertex 20 75 5
      vertex 0 130 5
      vertex 20 55 5
    endloop
  endfacet
  facet normal 0 0 1
    outer loop
      vertex 0 0 5
      vertex 20 55 5
      vertex 0 130 5
    endloop
  endfacet
  facet normal 0 0 1
    outer loop
      vertex 20 55 5
      vertex 0 0 5
      vertex 20 0 5
    endloop
  endfacet
  facet normal -0 0 1
    outer loop
      vertex 20 75 5
      vertex 35 55 5
      vertex 35 75 5
    endloop
  endfacet
  facet normal 0 0 1
    outer loop
      vertex 35 55 5
      vertex 20 75 5
      vertex 20 55 5
    endloop
  endfacet
  facet normal 0 0 1
    outer loop
      vertex 35 75 5
      vertex 60 130 5
      vertex 35 130 5
    endloop
  endfacet
  facet normal 0 0 1
    outer loop
      vertex 60 130 5
      vertex 35 75 5
      vertex 60 0 5
    endloop
  endfacet
  facet normal -0 0 1
    outer loop
      vertex 35 55 5
      vertex 60 0 5
      vertex 35 75 5
    endloop
  endfacet
  facet normal 0 0 1
    outer loop
      vertex 60 0 5
      vertex 35 55 5
      vertex 35 0 5
    endloop
  endfacet
  facet normal 0 -1 0
    outer loop
      vertex 20 0 20
      vertex 25 0 10
      vertex 25 0 20
    endloop
  endfacet
  facet normal 0 -1 -0
    outer loop
      vertex 25 0 10
      vertex 20 0 5
      vertex 30 0 10
    endloop
  endfacet
  facet normal 0 -1 0
    outer loop
      vertex 20 0 5
      vertex 25 0 10
      vertex 20 0 20
    endloop
  endfacet
  facet normal 0 -1 0
    outer loop
      vertex 30 0 10
      vertex 35 0 20
      vertex 30 0 20
    endloop
  endfacet
  facet normal 0 -1 0
    outer loop
      vertex 30 0 10
      vertex 35 0 5
      vertex 35 0 20
    endloop
  endfacet
  facet normal 0 -1 0
    outer loop
      vertex 35 0 5
      vertex 30 0 10
      vertex 20 0 5
    endloop
  endfacet
  facet normal 0 -1 0
    outer loop
      vertex 0 0 0
      vertex 20 0 5
      vertex 0 0 5
    endloop
  endfacet
  facet normal 0 -1 -0
    outer loop
      vertex 20 0 5
      vertex 0 0 0
      vertex 35 0 5
    endloop
  endfacet
  facet normal 0 -1 0
    outer loop
      vertex 60 0 0
      vertex 35 0 5
      vertex 0 0 0
    endloop
  endfacet
  facet normal 0 -1 0
    outer loop
      vertex 35 0 5
      vertex 60 0 0
      vertex 60 0 5
    endloop
  endfacet
  facet normal 0 1 0
    outer loop
      vertex 35 130 20
      vertex 30 130 10
      vertex 30 130 20
    endloop
  endfacet
  facet normal 0 1 0
    outer loop
      vertex 30 130 10
      vertex 35 130 5
      vertex 25 130 10
    endloop
  endfacet
  facet normal 0 1 -0
    outer loop
      vertex 35 130 5
      vertex 30 130 10
      vertex 35 130 20
    endloop
  endfacet
  facet normal 0 1 -0
    outer loop
      vertex 25 130 10
      vertex 20 130 20
      vertex 25 130 20
    endloop
  endfacet
  facet normal 0 1 0
    outer loop
      vertex 25 130 10
      vertex 20 130 5
      vertex 20 130 20
    endloop
  endfacet
  facet normal 0 1 0
    outer loop
      vertex 20 130 5
      vertex 25 130 10
      vertex 35 130 5
    endloop
  endfacet
  facet normal 0 1 -0
    outer loop
      vertex 60 130 0
      vertex 35 130 5
      vertex 60 130 5
    endloop
  endfacet
  facet normal 0 1 0
    outer loop
      vertex 0 130 0
      vertex 35 130 5
      vertex 60 130 0
    endloop
  endfacet
  facet normal 0 1 0
    outer loop
      vertex 35 130 5
      vertex 0 130 0
      vertex 20 130 5
    endloop
  endfacet
  facet normal 0 1 0
    outer loop
      vertex 20 130 5
      vertex 0 130 0
      vertex 0 130 5
    endloop
  endfacet
  facet normal 0 0 -1
    outer loop
      vertex 20 55 9
      vertex 35 75 9
      vertex 35 55 9
    endloop
  endfacet
  facet normal -0 0 -1
    outer loop
      vertex 35 75 9
      vertex 20 55 9
      vertex 20 75 9
    endloop
  endfacet
  facet normal 0 1 -0
    outer loop
      vertex 35 55 5
      vertex 20 55 9
      vertex 35 55 9
    endloop
  endfacet
  facet normal 0 1 0
    outer loop
      vertex 20 55 9
      vertex 35 55 5
      vertex 20 55 5
    endloop
  endfacet
  facet normal 0 -1 0
    outer loop
      vertex 20 75 5
      vertex 35 75 9
      vertex 20 75 9
    endloop
  endfacet
  facet normal 0 -1 -0
    outer loop
      vertex 35 75 9
      vertex 20 75 5
      vertex 35 75 5
    endloop
  endfacet
  facet normal -1 0 0
    outer loop
      vertex 30 0 10
      vertex 30 130 20
      vertex 30 130 10
    endloop
  endfacet
  facet normal -1 -0 0
    outer loop
      vertex 30 130 20
      vertex 30 0 10
      vertex 30 0 20
    endloop
  endfacet
  facet normal -0 0 1
    outer loop
      vertex 30 130 20
      vertex 35 0 20
      vertex 35 130 20
    endloop
  endfacet
  facet normal 0 0 1
    outer loop
      vertex 35 0 20
      vertex 30 130 20
      vertex 30 0 20
    endloop
  endfacet
  facet normal 1 0 0
    outer loop
      vertex 35 130 20
      vertex 35 75 9
      vertex 35 130 5
    endloop
  endfacet
  facet normal 1 0 0
    outer loop
      vertex 35 130 20
      vertex 35 55 9
      vertex 35 75 9
    endloop
  endfacet
  facet normal 1 -0 0
    outer loop
      vertex 35 0 20
      vertex 35 55 9
      vertex 35 130 20
    endloop
  endfacet
  facet normal 1 0 0
    outer loop
      vertex 35 0 5
      vertex 35 55 9
      vertex 35 0 20
    endloop
  endfacet
  facet normal 1 0 0
    outer loop
      vertex 35 55 9
      vertex 35 0 5
      vertex 35 55 5
    endloop
  endfacet
  facet normal 1 0 0
    outer loop
      vertex 35 130 5
      vertex 35 75 9
      vertex 35 75 5
    endloop
  endfacet
  facet normal -0 0 1
    outer loop
      vertex 25 130 10
      vertex 30 0 10
      vertex 30 130 10
    endloop
  endfacet
  facet normal 0 0 1
    outer loop
      vertex 30 0 10
      vertex 25 130 10
      vertex 25 0 10
    endloop
  endfacet
  facet normal -1 0 0
    outer loop
      vertex 0 0 0
      vertex 0 130 5
      vertex 0 130 0
    endloop
  endfacet
  facet normal -1 -0 0
    outer loop
      vertex 0 130 5
      vertex 0 0 0
      vertex 0 0 5
    endloop
  endfacet
  facet normal 1 -0 0
    outer loop
      vertex 60 0 5
      vertex 60 130 0
      vertex 60 130 5
    endloop
  endfacet
  facet normal 1 0 0
    outer loop
      vertex 60 130 0
      vertex 60 0 5
      vertex 60 0 0
    endloop
  endfacet
  facet normal 0 0 -1
    outer loop
      vertex 0 0 0
      vertex 60 130 0
      vertex 60 0 0
    endloop
  endfacet
  facet normal -0 0 -1
    outer loop
      vertex 60 130 0
      vertex 0 0 0
      vertex 0 130 0
    endloop
  endfacet
endsolid OpenSCAD_Model
