solid OpenSCAD_Model
  facet normal -1 0 0
    outer loop
      vertex 0 0 0
      vertex 0 20 2
      vertex 0 20 0
    endloop
  endfacet
  facet normal -1 -0 0
    outer loop
      vertex 0 20 2
      vertex 0 0 0
      vertex 0 0 2
    endloop
  endfacet
  facet normal -0 0 1
    outer loop
      vertex 0 20 2
      vertex 18 0 2
      vertex 18 20 2
    endloop
  endfacet
  facet normal 0 0 1
    outer loop
      vertex 18 0 2
      vertex 0 20 2
      vertex 0 0 2
    endloop
  endfacet
  facet normal 1 -0 0
    outer loop
      vertex 20 0 50
      vertex 20 20 0
      vertex 20 20 50
    endloop
  endfacet
  facet normal 1 0 0
    outer loop
      vertex 20 20 0
      vertex 20 0 50
      vertex 20 0 0
    endloop
  endfacet
  facet normal 0 0 -1
    outer loop
      vertex 0 0 0
      vertex 20 20 0
      vertex 20 0 0
    endloop
  endfacet
  facet normal -0 0 -1
    outer loop
      vertex 20 20 0
      vertex 0 0 0
      vertex 0 20 0
    endloop
  endfacet
  facet normal 0 -1 0
    outer loop
      vertex 0 0 2
      vertex 0 0 0
      vertex 18 0 2
    endloop
  endfacet
  facet normal 0 -1 0
    outer loop
      vertex 18 0 52
      vertex 20 0 50
      vertex 58 0 52
    endloop
  endfacet
  facet normal 0 -1 0
    outer loop
      vertex 18 0 2
      vertex 20 0 50
      vertex 18 0 52
    endloop
  endfacet
  facet normal 0 -1 0
    outer loop
      vertex 18 0 2
      vertex 20 0 0
      vertex 20 0 50
    endloop
  endfacet
  facet normal 0 -1 0
    outer loop
      vertex 20 0 0
      vertex 18 0 2
      vertex 0 0 0
    endloop
  endfacet
  facet normal 0 -1 0
    outer loop
      vertex 56 0 50
      vertex 58 0 52
      vertex 20 0 50
    endloop
  endfacet
  facet normal 0 -1 0
    outer loop
      vertex 56 0 50
      vertex 58 0 2
      vertex 58 0 52
    endloop
  endfacet
  facet normal 0 -1 0
    outer loop
      vertex 56 0 0
      vertex 58 0 2
      vertex 56 0 50
    endloop
  endfacet
  facet normal 0 -1 0
    outer loop
      vertex 76 0 0
      vertex 58 0 2
      vertex 56 0 0
    endloop
  endfacet
  facet normal 0 -1 0
    outer loop
      vertex 58 0 2
      vertex 76 0 0
      vertex 76 0 2
    endloop
  endfacet
  facet normal 0 1 0
    outer loop
      vertex 76 20 2
      vertex 76 20 0
      vertex 58 20 2
    endloop
  endfacet
  facet normal 0 1 0
    outer loop
      vertex 58 20 52
      vertex 56 20 50
      vertex 18 20 52
    endloop
  endfacet
  facet normal 0 1 -0
    outer loop
      vertex 58 20 2
      vertex 56 20 50
      vertex 58 20 52
    endloop
  endfacet
  facet normal 0 1 0
    outer loop
      vertex 58 20 2
      vertex 56 20 0
      vertex 56 20 50
    endloop
  endfacet
  facet normal 0 1 0
    outer loop
      vertex 56 20 0
      vertex 58 20 2
      vertex 76 20 0
    endloop
  endfacet
  facet normal 0 1 -0
    outer loop
      vertex 20 20 50
      vertex 18 20 52
      vertex 56 20 50
    endloop
  endfacet
  facet normal 0 1 0
    outer loop
      vertex 20 20 50
      vertex 18 20 2
      vertex 18 20 52
    endloop
  endfacet
  facet normal 0 1 -0
    outer loop
      vertex 20 20 0
      vertex 18 20 2
      vertex 20 20 50
    endloop
  endfacet
  facet normal 0 1 0
    outer loop
      vertex 0 20 0
      vertex 18 20 2
      vertex 20 20 0
    endloop
  endfacet
  facet normal 0 1 0
    outer loop
      vertex 18 20 2
      vertex 0 20 0
      vertex 0 20 2
    endloop
  endfacet
  facet normal -1 0 0
    outer loop
      vertex 18 0 2
      vertex 18 20 52
      vertex 18 20 2
    endloop
  endfacet
  facet normal -1 -0 0
    outer loop
      vertex 18 20 52
      vertex 18 0 2
      vertex 18 0 52
    endloop
  endfacet
  facet normal 0 0 -1
    outer loop
      vertex 20 0 50
      vertex 56 20 50
      vertex 56 0 50
    endloop
  endfacet
  facet normal -0 0 -1
    outer loop
      vertex 56 20 50
      vertex 20 0 50
      vertex 20 20 50
    endloop
  endfacet
  facet normal -0 0 1
    outer loop
      vertex 18 20 52
      vertex 58 0 52
      vertex 58 20 52
    endloop
  endfacet
  facet normal 0 0 1
    outer loop
      vertex 58 0 52
      vertex 18 20 52
      vertex 18 0 52
    endloop
  endfacet
  facet normal 1 -0 0
    outer loop
      vertex 58 0 52
      vertex 58 20 2
      vertex 58 20 52
    endloop
  endfacet
  facet normal 1 0 0
    outer loop
      vertex 58 20 2
      vertex 58 0 52
      vertex 58 0 2
    endloop
  endfacet
  facet normal -1 0 0
    outer loop
      vertex 56 0 0
      vertex 56 20 50
      vertex 56 20 0
    endloop
  endfacet
  facet normal -1 -0 0
    outer loop
      vertex 56 20 50
      vertex 56 0 0
      vertex 56 0 50
    endloop
  endfacet
  facet normal 0 0 -1
    outer loop
      vertex 56 0 0
      vertex 76 20 0
      vertex 76 0 0
    endloop
  endfacet
  facet normal -0 0 -1
    outer loop
      vertex 76 20 0
      vertex 56 0 0
      vertex 56 20 0
    endloop
  endfacet
  facet normal -0 0 1
    outer loop
      vertex 58 20 2
      vertex 76 0 2
      vertex 76 20 2
    endloop
  endfacet
  facet normal 0 0 1
    outer loop
      vertex 76 0 2
      vertex 58 20 2
      vertex 58 0 2
    endloop
  endfacet
  facet normal 1 -0 0
    outer loop
      vertex 76 0 2
      vertex 76 20 0
      vertex 76 20 2
    endloop
  endfacet
  facet normal 1 0 0
    outer loop
      vertex 76 20 0
      vertex 76 0 2
      vertex 76 0 0
    endloop
  endfacet
endsolid OpenSCAD_Model
