solid OpenSCAD_Model
  facet normal -1 0 0
    outer loop
      vertex 0 0 0
      vertex 0 185 85
      vertex 0 185 0
    endloop
  endfacet
  facet normal -1 -0 0
    outer loop
      vertex 0 185 85
      vertex 0 0 0
      vertex 0 0 85
    endloop
  endfacet
  facet normal -0 0 1
    outer loop
      vertex 5 180 10
      vertex 180 5 10
      vertex 180 180 10
    endloop
  endfacet
  facet normal 0 0 1
    outer loop
      vertex 180 5 10
      vertex 5 180 10
      vertex 5 5 10
    endloop
  endfacet
  facet normal -1 0 0
    outer loop
      vertex 180 5 10
      vertex 180 180 85
      vertex 180 180 10
    endloop
  endfacet
  facet normal -1 -0 0
    outer loop
      vertex 180 180 85
      vertex 180 5 10
      vertex 180 5 85
    endloop
  endfacet
  facet normal 0 -1 0
    outer loop
      vertex 5 180 10
      vertex 180 180 85
      vertex 5 180 85
    endloop
  endfacet
  facet normal 0 -1 -0
    outer loop
      vertex 180 180 85
      vertex 5 180 10
      vertex 180 180 10
    endloop
  endfacet
  facet normal 0 0 -1
    outer loop
      vertex 0 0 0
      vertex 185 185 0
      vertex 185 0 0
    endloop
  endfacet
  facet normal -0 0 -1
    outer loop
      vertex 185 185 0
      vertex 0 0 0
      vertex 0 185 0
    endloop
  endfacet
  facet normal 0 -1 0
    outer loop
      vertex 0 0 0
      vertex 185 0 85
      vertex 0 0 85
    endloop
  endfacet
  facet normal 0 -1 -0
    outer loop
      vertex 185 0 85
      vertex 0 0 0
      vertex 185 0 0
    endloop
  endfacet
  facet normal 0 0 1
    outer loop
      vertex 185 185 85
      vertex 180 180 85
      vertex 185 0 85
    endloop
  endfacet
  facet normal 0 0 1
    outer loop
      vertex 185 185 85
      vertex 5 180 85
      vertex 180 180 85
    endloop
  endfacet
  facet normal 0 0 1
    outer loop
      vertex 5 180 85
      vertex 0 185 85
      vertex 5 5 85
    endloop
  endfacet
  facet normal -0 0 1
    outer loop
      vertex 0 185 85
      vertex 5 180 85
      vertex 185 185 85
    endloop
  endfacet
  facet normal -0 0 1
    outer loop
      vertex 180 5 85
      vertex 185 0 85
      vertex 180 180 85
    endloop
  endfacet
  facet normal -0 0 1
    outer loop
      vertex 5 5 85
      vertex 185 0 85
      vertex 180 5 85
    endloop
  endfacet
  facet normal 0 0 1
    outer loop
      vertex 5 5 85
      vertex 0 0 85
      vertex 185 0 85
    endloop
  endfacet
  facet normal 0 0 1
    outer loop
      vertex 0 0 85
      vertex 5 5 85
      vertex 0 185 85
    endloop
  endfacet
  facet normal 0 1 -0
    outer loop
      vertex 180 5 10
      vertex 5 5 85
      vertex 180 5 85
    endloop
  endfacet
  facet normal 0 1 0
    outer loop
      vertex 5 5 85
      vertex 180 5 10
      vertex 5 5 10
    endloop
  endfacet
  facet normal 1 -0 0
    outer loop
      vertex 5 5 85
      vertex 5 180 10
      vertex 5 180 85
    endloop
  endfacet
  facet normal 1 0 0
    outer loop
      vertex 5 180 10
      vertex 5 5 85
      vertex 5 5 10
    endloop
  endfacet
  facet normal 1 -0 0
    outer loop
      vertex 185 0 85
      vertex 185 185 0
      vertex 185 185 85
    endloop
  endfacet
  facet normal 1 0 0
    outer loop
      vertex 185 185 0
      vertex 185 0 85
      vertex 185 0 0
    endloop
  endfacet
  facet normal 0 1 -0
    outer loop
      vertex 185 185 0
      vertex 0 185 85
      vertex 185 185 85
    endloop
  endfacet
  facet normal 0 1 0
    outer loop
      vertex 0 185 85
      vertex 185 185 0
      vertex 0 185 0
    endloop
  endfacet
endsolid OpenSCAD_Model
